<svg xmlns="http://www.w3.org/2000/svg" width="862.133" height="348.788" viewBox="0 0 862.133 348.788">
  <g id="Shapes" transform="translate(45.598 -31)">
    <path id="Path_15865" data-name="Path 15865" d="M0,0H21V21H0Z" transform="matrix(-0.875, 0.485, -0.485, -0.875, 794.705, 49.367)" fill="#fbcfbc"/>
    <path id="Path_15840" data-name="Path 15840" d="M10.5,0,21,21H0Z" transform="translate(287.675 309.969) rotate(146)" fill="#fbcfbc"/>
    <path id="Path_15841" data-name="Path 15841" d="M7.5,0,15,15H0Z" transform="matrix(-0.914, -0.407, 0.407, -0.914, 810.434, 379.788)" fill="#e1e2eb"/>
    <path id="Path_15842" data-name="Path 15842" d="M7.5,0,15,15H0Z" transform="matrix(-0.914, -0.407, 0.407, -0.914, 28.703, 69.292)" fill="#e1e2eb"/>
    <path id="Path_15864" data-name="Path 15864" d="M5,0A5,5,0,1,1,0,5,5,5,0,0,1,5,0Z" transform="translate(732.931 180.962)" fill="#c6b4fa"/>
    <path id="Path_15863" data-name="Path 15863" d="M5,0A5,5,0,1,1,0,5,5,5,0,0,1,5,0Z" transform="translate(-45.598 246.388)" fill="#c6b4fa"/>
  </g>
</svg>
